<svg version="1.1" id="Layer_1" xmlns="http://www.w3.org/2000/svg" xmlns:xlink="http://www.w3.org/1999/xlink" x="0px" y="0px">
	<symbol id="location" viewBox="0 0 100.353 100.352">
	<path d="M58.23,69.992l14.993-24.108c0.049-0.078,0.09-0.16,0.122-0.245c2.589-4.222,3.956-9.045,3.956-13.969
		c0-14.772-12.018-26.79-26.79-26.79S23.72,16.898,23.72,31.67c0,4.925,1.369,9.75,3.96,13.975c0.03,0.074,0.065,0.146,0.107,0.216
		l14.455,24.191c-11.221,1.586-18.6,6.2-18.6,11.797c0,6.935,11.785,12.366,26.829,12.366S77.3,88.783,77.3,81.849
		C77.301,76.226,69.578,71.509,58.23,69.992z M30.373,44.294c-2.39-3.804-3.653-8.169-3.653-12.624
		c0-13.118,10.672-23.79,23.791-23.79c13.118,0,23.79,10.672,23.79,23.79c0,4.457-1.263,8.822-3.652,12.624
		c-0.05,0.08-0.091,0.163-0.124,0.249L54.685,70.01c-0.238,0.365-0.285,0.448-0.576,0.926l-4,6.432L30.507,44.564
		C30.472,44.471,30.427,44.38,30.373,44.294z M50.472,91.215c-14.043,0-23.829-4.937-23.829-9.366c0-4.02,7.37-7.808,17.283-8.981
		l4.87,8.151c0.269,0.449,0.751,0.726,1.274,0.73c0.004,0,0.009,0,0.013,0c0.518,0,1-0.268,1.274-0.708l5.12-8.232
		C66.548,73.9,74.3,77.784,74.3,81.849C74.301,86.279,64.515,91.215,50.472,91.215z"/>
	<path d="M60.213,31.67c0-5.371-4.37-9.741-9.741-9.741s-9.741,4.37-9.741,9.741s4.37,9.741,9.741,9.741
		C55.843,41.411,60.213,37.041,60.213,31.67z M43.731,31.67c0-3.717,3.024-6.741,6.741-6.741s6.741,3.024,6.741,6.741
		s-3.023,6.741-6.741,6.741S43.731,35.387,43.731,31.67z"/>
    </symbol>
    <symbol id="phone" viewBox="0 0 100.4 100.4">
    <path d="M69.3,8.6H28c-5.3,0-9.7,4.3-9.7,9.6v66.2c0,5.3,4.3,9.6,9.7,9.6h41.3c5.3,0,9.7-4.3,9.7-9.6V18.2
		C79,12.9,74.7,8.6,69.3,8.6z M76,84.4c0,3.7-3,6.6-6.7,6.6H28c-3.7,0-6.7-3-6.7-6.6V18.2c0-3.7,3-6.6,6.7-6.6h41.3
		c3.7,0,6.7,3,6.7,6.6V84.4z"/>
	<path d="M60.9,18.1H36.2c-0.8,0-1.5,0.7-1.5,1.5s0.7,1.5,1.5,1.5h24.7c0.8,0,1.5-0.7,1.5-1.5S61.7,18.1,60.9,18.1z"/>
	<path d="M48.6,75.4c-2.8,0-5,2.3-5,5c0,1.3,0.5,2.6,1.5,3.5c0.9,0.9,2.2,1.4,3.5,1.4c0,0,0,0,0,0c2.8,0,5-2.3,5-5
		C53.6,77.6,51.4,75.4,48.6,75.4z M48.7,82.4C48.7,82.4,48.7,82.4,48.7,82.4c-0.5,0-1-0.2-1.4-0.6c-0.4-0.4-0.6-0.9-0.6-1.4
		c0-1.1,0.9-2,2-2c0,0,0,0,0,0c1.1,0,2,0.9,2,2C50.7,81.5,49.8,82.4,48.7,82.4z"/>
    </symbol>
</svg>