<svg version="1.1" xmlns="http://www.w3.org/2000/svg" xmlns:xlink="http://www.w3.org/1999/xlink" x="0px" y="0px">
<symbol id="food" viewBox="0 0 45.293 45.293">
	<path d="M26.138,21.111c0.019-0.158,0.027-0.32,0.027-0.482c0-2.045-1.418-3.701-3.168-3.701c-1.753,0-3.173,1.656-3.173,3.701
			c0,0.125,0.008,0.248,0.018,0.373c-9.762,1.363-17.28,9.746-17.28,19.887H42.73C42.73,30.988,35.562,22.766,26.138,21.111z"/>
	<rect x="2.562" y="42.826" width="40.168" height="2.467"/>
	<path d="M13.124,16.174c0.29,0.318,0.65,0.527,1.016,0.641c0.366,0.113,0.741,0.156,1.105,0.113
			c-0.679-0.23-1.299-0.621-1.56-1.152c-0.271-0.516-0.184-1.123,0.019-1.711c0.211-0.594,0.539-1.174,0.902-1.738
			c0.364-0.564,0.77-1.117,1.196-1.66c0.444-0.578,0.866-1.188,1.229-1.842c0.357-0.658,0.671-1.357,0.822-2.146
			c0.072-0.391,0.106-0.805,0.035-1.227c-0.065-0.418-0.241-0.84-0.526-1.158c-0.286-0.316-0.646-0.527-1.013-0.641
			c-0.367-0.114-0.74-0.153-1.103-0.114c0.677,0.229,1.3,0.623,1.56,1.156c0.271,0.516,0.181,1.119-0.022,1.707
			c-0.211,0.596-0.535,1.176-0.899,1.738c-0.364,0.566-0.771,1.117-1.195,1.662c-0.444,0.58-0.866,1.186-1.229,1.842
			c-0.358,0.656-0.673,1.359-0.821,2.145c-0.074,0.391-0.107,0.809-0.037,1.227C12.671,15.436,12.844,15.855,13.124,16.174z"/>
	<path d="M20.525,12.652c0.287,0.314,0.648,0.527,1.013,0.639c0.37,0.115,0.745,0.154,1.106,0.115
			c-0.678-0.23-1.3-0.625-1.558-1.152c-0.274-0.521-0.185-1.123,0.02-1.713c0.206-0.594,0.536-1.174,0.898-1.736
			c0.367-0.566,0.771-1.119,1.197-1.662c0.446-0.578,0.865-1.186,1.229-1.842c0.355-0.656,0.675-1.359,0.824-2.146
			c0.073-0.391,0.104-0.805,0.033-1.227c-0.066-0.416-0.243-0.84-0.525-1.158c-0.285-0.316-0.647-0.531-1.013-0.643
			c-0.367-0.111-0.744-0.152-1.106-0.111c0.677,0.23,1.3,0.623,1.558,1.154c0.271,0.52,0.183,1.119-0.021,1.711
			c-0.21,0.59-0.535,1.174-0.899,1.736c-0.364,0.566-0.767,1.117-1.192,1.662c-0.446,0.578-0.867,1.188-1.231,1.844
			c-0.354,0.652-0.67,1.355-0.821,2.145c-0.071,0.391-0.104,0.807-0.034,1.225C20.069,11.908,20.243,12.334,20.525,12.652z"/>
	<path d="M28.124,16.174c0.287,0.318,0.646,0.527,1.014,0.641s0.742,0.156,1.104,0.113c-0.677-0.23-1.298-0.621-1.56-1.152
			c-0.271-0.516-0.182-1.123,0.021-1.711c0.211-0.594,0.539-1.174,0.9-1.738c0.366-0.564,0.77-1.117,1.195-1.66
			c0.447-0.578,0.868-1.188,1.229-1.842c0.358-0.658,0.677-1.357,0.825-2.146c0.074-0.391,0.106-0.805,0.036-1.227
			c-0.069-0.418-0.244-0.84-0.524-1.158c-0.288-0.316-0.648-0.527-1.016-0.641S30.604,3.5,30.241,3.539
			c0.679,0.229,1.302,0.623,1.557,1.156c0.275,0.516,0.183,1.119-0.019,1.707C31.57,6.998,31.244,7.578,30.88,8.14
			c-0.366,0.566-0.772,1.117-1.193,1.662c-0.447,0.58-0.87,1.186-1.228,1.842c-0.361,0.656-0.676,1.359-0.826,2.145
			c-0.072,0.391-0.105,0.809-0.033,1.227C27.666,15.436,27.838,15.855,28.124,16.174z"/>
</symbol>
<symbol id="clock" viewBox="0 0 48 48">
 	<path d="M43.102,14.113c-0.331-0.579-0.684-1.143-1.064-1.688  C43.208,11.727,44,10.462,44,9c0-2.209-1.791-4-4-4c-1.462,0-2.727,0.792-3.425,1.963c-0.545-0.381-1.108-0.733-1.688-1.064  C35.939,4.167,37.826,3,40,3c3.313,0,6,2.687,6,6C46,11.174,44.832,13.061,43.102,14.113z M44,25c0,5.171-1.979,9.868-5.2,13.419  l4.915,4.915c0.381,0.381,0.381,0.999,0,1.381c-0.382,0.381-1,0.381-1.381,0L37.419,39.8C33.868,43.021,29.171,45,24,45  s-9.868-1.979-13.418-5.2l-4.916,4.915c-0.381,0.381-1,0.381-1.381,0c-0.381-0.382-0.381-1,0-1.381L9.2,38.419  C5.979,34.868,4,30.171,4,25C4,13.954,12.954,5,24,5S44,13.954,44,25z M24,7C14.059,7,6,15.059,6,25c0,9.941,8.059,18,18,18  s18-8.059,18-18C42,15.059,33.941,7,24,7z M25,28.858V38c0,0.553-0.447,1-1,1s-1-0.447-1-1v-9.142c-1.723-0.446-3-1.997-3-3.858  c0-0.749,0.219-1.441,0.578-2.041l-4.293-4.292c-0.381-0.381-0.381-1,0-1.381c0.382-0.381,1-0.381,1.381,0l4.293,4.292  C22.559,21.219,23.251,21,24,21c2.209,0,4,1.791,4,4C28,26.861,26.723,28.412,25,28.858z M24,23c-1.104,0-2,0.896-2,2s0.896,2,2,2  s2-0.896,2-2S25.104,23,24,23z M8,5C5.791,5,4,6.791,4,9c0,1.462,0.793,2.727,1.963,3.425c-0.381,0.545-0.733,1.109-1.064,1.688  C3.168,13.061,2,11.174,2,9c0-3.313,2.687-6,6-6c2.174,0,4.061,1.167,5.113,2.899c-0.58,0.331-1.144,0.683-1.688,1.064  C10.727,5.792,9.461,5,8,5z"/>
</symbol>
<symbol id="clipboard" viewBox="0 0 28 32">
	<path d="M1.5,32h25c0.869,0,1.5-0.631,1.5-1.5v-28C28,1.631,27.369,1,26.5,1h-4C22.224,1,22,1.224,22,1.5
		S22.224,2,22.5,2h4C26.813,2,27,2.187,27,2.5v28c0,0.313-0.187,0.5-0.5,0.5h-25C1.187,31,1,30.813,1,30.5v-28
		C1,2.187,1.187,2,1.5,2h4C5.776,2,6,1.776,6,1.5S5.776,1,5.5,1h-4C0.631,1,0,1.631,0,2.5v28C0,31.369,0.631,32,1.5,32z"/>
	<path d="M5.5,5C5.776,5,6,4.776,6,4.5S5.776,4,5.5,4h-2C3.224,4,3,4.224,3,4.5v24C3,28.776,3.224,29,3.5,29h21
		c0.276,0,0.5-0.224,0.5-0.5v-24C25,4.224,24.776,4,24.5,4h-2C22.224,4,22,4.224,22,4.5S22.224,5,22.5,5H24v23H4V5H5.5z"/>
	<path d="M9,7h10c1.215,0,2-0.785,2-2V0.5C21,0.224,20.776,0,20.5,0h-13C7.224,0,7,0.224,7,0.5V5
		C7,6.215,7.785,7,9,7z M8,1h12v4c0,0.664-0.337,1-1,1H9C8.337,6,8,5.664,8,5V1z"/>
	<path d="M8.5,16h11c0.276,0,0.5-0.224,0.5-0.5S19.776,15,19.5,15h-11C8.224,15,8,15.224,8,15.5S8.224,16,8.5,16z"/>
	<path d="M8.5,12h11c0.276,0,0.5-0.224,0.5-0.5S19.776,11,19.5,11h-11C8.224,11,8,11.224,8,11.5S8.224,12,8.5,12z"/>
	<path d="M8.5,20h11c0.276,0,0.5-0.224,0.5-0.5S19.776,19,19.5,19h-11C8.224,19,8,19.224,8,19.5S8.224,20,8.5,20z"/>
	<path d="M8.5,24h11c0.276,0,0.5-0.224,0.5-0.5S19.776,23,19.5,23h-11C8.224,23,8,23.224,8,23.5S8.224,24,8.5,24z"/>
</symbol>
<symbol id="link" viewBox="0 0 1000 1000">
	<path d="M568.2,644.1c-54.4,0-108.7-20.7-150.1-62.1c-11.2-11.2-11.2-29.5,0-40.8c11.2-11.2,29.5-11.2,40.8,0c60.3,60.3,158.4,60.3,218.7,0l209.6-209.6c60.3-60.3,60.3-158.4,0-218.7c-60.3-60.3-158.4-60.3-218.7,0L491.6,289.7c-11.2,11.2-29.5,11.2-40.8,0c-11.2-11.2-11.2-29.5,0-40.8L627.7,72.1c82.8-82.8,217.5-82.8,300.2,0c82.7,82.8,82.8,217.5,0,300.2L718.3,582C676.9,623.4,622.5,644.1,568.2,644.1L568.2,644.1L568.2,644.1z M222.2,990c-54.4,0-108.7-20.7-150.1-62.1c-82.8-82.8-82.8-217.5,0-300.2L281.7,418c82.8-82.8,217.5-82.8,300.2,0c11.2,11.2,11.2,29.5,0,40.8c-11.2,11.2-29.5,11.2-40.8,0c-60.3-60.3-158.4-60.3-218.7,0L112.9,668.4c-60.3,60.3-60.3,158.4,0,218.7c60.3,60.3,158.4,60.3,218.7,0l176.9-176.9c11.2-11.2,29.5-11.2,40.8,0c11.2,11.2,11.2,29.5,0,40.8L372.3,927.9C330.9,969.3,276.6,990,222.2,990L222.2,990L222.2,990z"/>
</symbol>
</svg>
